<svg xmlns="http://www.w3.org/2000/svg" xmlns:xlink="http://www.w3.org/1999/xlink" width="500" zoomAndPan="magnify" viewBox="0 0 375 374.999991" height="500" preserveAspectRatio="xMidYMid meet" version="1.0"><defs><g/><clipPath id="f720c64210"><path d="M 166 139 L 236 139 L 236 185.148438 L 166 185.148438 Z M 166 139 " clip-rule="nonzero"/></clipPath></defs><rect x="-37.5" width="450" fill="#ffffff" y="-37.499999" height="449.999989" fill-opacity="1"/><rect x="-37.5" width="450" fill="#313537" y="-37.499999" height="449.999989" fill-opacity="1"/><g clip-path="url(#f720c64210)"><path fill="#f2f2f2" d="M 232.578125 139.507812 C 230.695312 139.507812 229.171875 141.03125 229.171875 142.910156 L 229.171875 153.65625 L 212.597656 153.429688 C 211.675781 153.414062 210.789062 153.777344 210.140625 154.425781 L 187.492188 177.074219 L 171.953125 161.535156 C 170.621094 160.203125 168.464844 160.203125 167.136719 161.535156 C 165.804688 162.867188 165.804688 165.023438 167.136719 166.351562 L 185.082031 184.296875 C 185.746094 184.960938 186.621094 185.296875 187.492188 185.296875 C 188.363281 185.296875 189.238281 184.960938 189.898438 184.296875 L 213.941406 160.257812 L 229.171875 160.46875 L 229.171875 170.753906 C 229.171875 172.636719 230.695312 174.160156 232.578125 174.160156 C 234.457031 174.160156 235.984375 172.636719 235.984375 170.753906 L 235.984375 142.910156 C 235.984375 141.03125 234.457031 139.507812 232.578125 139.507812 Z M 232.578125 139.507812 " fill-opacity="1" fill-rule="nonzero"/></g><path fill="#f2f2f2" d="M 243.050781 141.496094 C 241.167969 141.496094 239.644531 143.023438 239.644531 144.902344 L 239.644531 168.761719 C 239.644531 170.644531 241.167969 172.167969 243.050781 172.167969 C 244.929688 172.167969 246.453125 170.644531 246.453125 168.761719 L 246.453125 144.902344 C 246.457031 143.023438 244.929688 141.496094 243.050781 141.496094 Z M 243.050781 141.496094 " fill-opacity="1" fill-rule="nonzero"/><path fill="#f2f2f2" d="M 253.523438 145.074219 C 251.644531 145.074219 250.117188 146.601562 250.117188 148.480469 L 250.117188 165.1875 C 250.117188 167.070312 251.644531 168.59375 253.523438 168.59375 C 255.40625 168.59375 256.929688 167.070312 256.929688 165.1875 L 256.929688 148.480469 C 256.929688 146.601562 255.40625 145.074219 253.523438 145.074219 Z M 253.523438 145.074219 " fill-opacity="1" fill-rule="nonzero"/><path fill="#d3f51c" d="M 214.960938 126.585938 C 207.484375 119.113281 195.757812 118.417969 187.496094 124.511719 C 183.886719 121.835938 179.535156 120.394531 174.960938 120.394531 C 169.320312 120.394531 164.015625 122.59375 160.023438 126.582031 C 156.964844 129.640625 154.945312 133.496094 154.175781 137.742188 C 153.425781 141.878906 153.914062 146.101562 155.585938 149.945312 C 155.6875 150.179688 155.792969 150.410156 155.902344 150.640625 L 145.816406 150.640625 L 145.816406 140.125 C 145.816406 138.242188 144.292969 136.71875 142.410156 136.71875 C 140.527344 136.71875 139.003906 138.242188 139.003906 140.125 L 139.003906 167.972656 C 139.003906 169.851562 140.527344 171.375 142.410156 171.375 C 144.292969 171.375 145.816406 169.851562 145.816406 167.972656 L 145.816406 157.453125 L 162.4375 157.453125 C 163.8125 157.453125 165.058594 156.625 165.585938 155.351562 C 166.109375 154.078125 165.820312 152.613281 164.84375 151.640625 C 163.566406 150.359375 162.554688 148.878906 161.839844 147.234375 C 159.476562 141.804688 160.65625 135.585938 164.84375 131.402344 C 167.550781 128.695312 171.140625 127.210938 174.964844 127.210938 C 178.789062 127.210938 182.382812 128.699219 185.085938 131.402344 C 186.417969 132.730469 188.574219 132.730469 189.902344 131.402344 C 195.484375 125.820312 204.5625 125.820312 210.144531 131.402344 C 212.847656 134.105469 214.332031 137.695312 214.335938 141.519531 C 214.335938 142.730469 214.183594 143.9375 213.882812 145.105469 C 213.414062 146.929688 214.507812 148.785156 216.332031 149.253906 C 218.152344 149.726562 220.007812 148.628906 220.480469 146.804688 C 220.925781 145.082031 221.152344 143.304688 221.152344 141.519531 C 221.144531 135.875 218.945312 130.570312 214.960938 126.585938 Z M 214.960938 126.585938 " fill-opacity="1" fill-rule="nonzero"/><path fill="#d3f51c" d="M 131.933594 138.710938 C 130.054688 138.710938 128.53125 140.234375 128.53125 142.117188 L 128.53125 165.976562 C 128.53125 167.855469 130.054688 169.382812 131.933594 169.382812 C 133.816406 169.382812 135.339844 167.855469 135.339844 165.976562 L 135.339844 142.117188 C 135.339844 140.234375 133.816406 138.710938 131.933594 138.710938 Z M 131.933594 138.710938 " fill-opacity="1" fill-rule="nonzero"/><path fill="#d3f51c" d="M 121.460938 142.289062 C 119.578125 142.289062 118.054688 143.8125 118.054688 145.695312 L 118.054688 162.402344 C 118.054688 164.28125 119.578125 165.808594 121.460938 165.808594 C 123.339844 165.808594 124.867188 164.28125 124.867188 162.402344 L 124.867188 145.695312 C 124.867188 143.8125 123.339844 142.289062 121.460938 142.289062 Z M 121.460938 142.289062 " fill-opacity="1" fill-rule="nonzero"/><g fill="#f2f2f2" fill-opacity="1"><g transform="translate(74.325013, 220.567853)"><g><path d="M 24.234375 -18.453125 L 24.234375 -13.84375 C 24.234375 -13 24.023438 -12.222656 23.609375 -11.515625 C 23.191406 -10.816406 22.628906 -10.257812 21.921875 -9.84375 C 21.222656 -9.4375 20.453125 -9.234375 19.609375 -9.234375 L 15 -9.234375 L 19.609375 -4.609375 L 24.234375 -4.609375 L 24.234375 0 L 18.6875 0 C 18.03125 0 17.472656 -0.226562 17.015625 -0.6875 L 8.484375 -9.234375 L 5.765625 -9.234375 L 5.765625 0 L 1.15625 0 L 1.15625 -23.078125 L 19.609375 -23.078125 C 20.453125 -23.078125 21.222656 -22.867188 21.921875 -22.453125 C 22.628906 -22.035156 23.191406 -21.476562 23.609375 -20.78125 C 24.023438 -20.082031 24.234375 -19.304688 24.234375 -18.453125 Z M 19.609375 -18.453125 L 5.765625 -18.453125 L 5.765625 -13.84375 L 19.609375 -13.84375 Z M 19.609375 -18.453125 "/></g></g></g><g fill="#f2f2f2" fill-opacity="1"><g transform="translate(101.031107, 220.567853)"><g><path d="M 19.609375 0 L 5.765625 0 C 4.921875 0 4.144531 -0.203125 3.4375 -0.609375 C 2.738281 -1.023438 2.179688 -1.582031 1.765625 -2.28125 C 1.359375 -2.988281 1.15625 -3.765625 1.15625 -4.609375 L 1.15625 -18.453125 C 1.15625 -19.304688 1.359375 -20.082031 1.765625 -20.78125 C 2.179688 -21.476562 2.738281 -22.035156 3.4375 -22.453125 C 4.144531 -22.867188 4.921875 -23.078125 5.765625 -23.078125 L 19.609375 -23.078125 C 20.453125 -23.078125 21.222656 -22.867188 21.921875 -22.453125 C 22.628906 -22.035156 23.191406 -21.476562 23.609375 -20.78125 C 24.023438 -20.082031 24.234375 -19.304688 24.234375 -18.453125 L 24.234375 -4.609375 C 24.234375 -3.785156 24.023438 -3.019531 23.609375 -2.3125 C 23.191406 -1.613281 22.632812 -1.050781 21.9375 -0.625 C 21.25 -0.207031 20.472656 0 19.609375 0 Z M 5.765625 -18.453125 L 5.765625 -4.609375 L 19.609375 -4.609375 L 19.609375 -18.453125 Z M 5.765625 -18.453125 "/></g></g></g><g fill="#f2f2f2" fill-opacity="1"><g transform="translate(127.737202, 220.567853)"><g><path d="M 24.234375 0 L 5.765625 0 C 4.921875 0 4.144531 -0.203125 3.4375 -0.609375 C 2.738281 -1.023438 2.179688 -1.582031 1.765625 -2.28125 C 1.359375 -2.988281 1.15625 -3.765625 1.15625 -4.609375 L 1.15625 -23.078125 L 5.765625 -23.078125 L 5.765625 -4.609375 L 24.234375 -4.609375 Z M 24.234375 0 "/></g></g></g><g fill="#f2f2f2" fill-opacity="1"><g transform="translate(154.443298, 220.567853)"><g><path d="M 24.234375 -23.078125 L 24.234375 -18.453125 L 5.765625 -18.453125 L 5.765625 -13.84375 L 24.234375 -13.84375 L 24.234375 -9.234375 L 5.765625 -9.234375 L 5.765625 -4.609375 L 24.234375 -4.609375 L 24.234375 0 L 5.765625 0 C 4.921875 0 4.144531 -0.203125 3.4375 -0.609375 C 2.738281 -1.023438 2.179688 -1.582031 1.765625 -2.28125 C 1.359375 -2.988281 1.15625 -3.765625 1.15625 -4.609375 L 1.15625 -18.453125 C 1.15625 -19.304688 1.359375 -20.082031 1.765625 -20.78125 C 2.179688 -21.476562 2.738281 -22.035156 3.4375 -22.453125 C 4.144531 -22.867188 4.921875 -23.078125 5.765625 -23.078125 Z M 24.234375 -23.078125 "/></g></g></g><g fill="#f2f2f2" fill-opacity="1"><g transform="translate(181.149389, 220.567853)"><g><path d="M 24.234375 -23.078125 L 24.234375 -19.84375 C 24.234375 -19.1875 24 -18.628906 23.53125 -18.171875 L 16.90625 -11.53125 L 23.53125 -4.90625 C 24 -4.445312 24.234375 -3.890625 24.234375 -3.234375 L 24.234375 0 L 19.609375 0 L 19.609375 -2.3125 L 12.6875 -9.234375 L 5.765625 -2.3125 L 5.765625 0 L 1.15625 0 L 1.15625 -3.234375 C 1.15625 -3.890625 1.382812 -4.445312 1.84375 -4.90625 L 8.484375 -11.53125 L 1.84375 -18.171875 C 1.382812 -18.628906 1.15625 -19.1875 1.15625 -19.84375 L 1.15625 -23.078125 L 5.765625 -23.078125 L 5.765625 -20.765625 L 12.6875 -13.84375 L 19.609375 -20.765625 L 19.609375 -23.078125 Z M 24.234375 -23.078125 "/></g></g></g><g fill="#f2f2f2" fill-opacity="1"><g transform="translate(207.855481, 220.567853)"><g/></g></g><g fill="#f2f2f2" fill-opacity="1"><g transform="translate(221.872054, 220.567853)"><g><path d="M 24.234375 -23.078125 L 24.234375 -18.453125 L 5.765625 -18.453125 L 5.765625 -4.609375 L 19.609375 -4.609375 L 19.609375 -9.234375 L 10.390625 -9.234375 L 10.390625 -13.84375 L 24.234375 -13.84375 L 24.234375 -4.609375 C 24.234375 -3.785156 24.023438 -3.019531 23.609375 -2.3125 C 23.191406 -1.613281 22.632812 -1.050781 21.9375 -0.625 C 21.25 -0.207031 20.472656 0 19.609375 0 L 5.765625 0 C 4.921875 0 4.144531 -0.203125 3.4375 -0.609375 C 2.738281 -1.023438 2.179688 -1.582031 1.765625 -2.28125 C 1.359375 -2.988281 1.15625 -3.765625 1.15625 -4.609375 L 1.15625 -18.453125 C 1.15625 -19.304688 1.359375 -20.082031 1.765625 -20.78125 C 2.179688 -21.476562 2.738281 -22.035156 3.4375 -22.453125 C 4.144531 -22.867188 4.921875 -23.078125 5.765625 -23.078125 Z M 24.234375 -23.078125 "/></g></g></g><g fill="#f2f2f2" fill-opacity="1"><g transform="translate(248.578145, 220.567853)"><g><path d="M 19.609375 -13.84375 L 19.609375 -23.078125 L 24.234375 -23.078125 L 24.234375 -4.609375 C 24.234375 -3.765625 24.023438 -2.988281 23.609375 -2.28125 C 23.191406 -1.582031 22.628906 -1.023438 21.921875 -0.609375 C 21.222656 -0.203125 20.453125 0 19.609375 0 L 1.15625 0 L 1.15625 -4.609375 L 19.609375 -4.609375 L 19.609375 -9.234375 L 5.765625 -9.234375 C 4.921875 -9.234375 4.144531 -9.4375 3.4375 -9.84375 C 2.738281 -10.257812 2.179688 -10.816406 1.765625 -11.515625 C 1.359375 -12.222656 1.15625 -13 1.15625 -13.84375 L 1.15625 -23.078125 L 5.765625 -23.078125 L 5.765625 -13.84375 Z M 19.609375 -13.84375 "/></g></g></g><g fill="#f2f2f2" fill-opacity="1"><g transform="translate(275.284237, 220.567853)"><g><path d="M 5.765625 -23.078125 L 19.609375 -23.078125 C 20.453125 -23.078125 21.222656 -22.867188 21.921875 -22.453125 C 22.628906 -22.035156 23.191406 -21.476562 23.609375 -20.78125 C 24.023438 -20.082031 24.234375 -19.304688 24.234375 -18.453125 L 24.234375 0 L 19.609375 0 L 19.609375 -18.453125 L 15 -18.453125 L 15 0 L 10.390625 0 L 10.390625 -18.453125 L 5.765625 -18.453125 L 5.765625 0 L 1.15625 0 L 1.15625 -18.453125 C 1.15625 -19.304688 1.359375 -20.082031 1.765625 -20.78125 C 2.179688 -21.476562 2.738281 -22.035156 3.4375 -22.453125 C 4.144531 -22.867188 4.921875 -23.078125 5.765625 -23.078125 Z M 5.765625 -23.078125 "/></g></g></g><g fill="#d3f51c" fill-opacity="1"><g transform="translate(148.048705, 240.566922)"><g><path d="M 5.015625 -8.75 L 5.015625 -7.625 C 5.015625 -7.507812 4.957031 -7.453125 4.84375 -7.453125 L 2.078125 -7.453125 L 2.078125 -5.203125 L 4.171875 -5.203125 C 4.285156 -5.203125 4.34375 -5.144531 4.34375 -5.03125 L 4.34375 -3.921875 C 4.34375 -3.796875 4.285156 -3.734375 4.171875 -3.734375 L 2.078125 -3.734375 L 2.078125 -0.171875 C 2.078125 -0.0546875 2.015625 0 1.890625 0 L 0.734375 0 C 0.617188 0 0.5625 -0.0546875 0.5625 -0.171875 L 0.5625 -8.75 C 0.5625 -8.863281 0.617188 -8.921875 0.734375 -8.921875 L 4.84375 -8.921875 C 4.957031 -8.921875 5.015625 -8.863281 5.015625 -8.75 Z M 5.015625 -8.75 "/></g></g></g><g fill="#d3f51c" fill-opacity="1"><g transform="translate(153.626807, 240.566922)"><g><path d="M 0.734375 -8.921875 L 1.890625 -8.921875 C 2.015625 -8.921875 2.078125 -8.863281 2.078125 -8.75 L 2.078125 -0.171875 C 2.078125 -0.0546875 2.015625 0 1.890625 0 L 0.734375 0 C 0.617188 0 0.5625 -0.0546875 0.5625 -0.171875 L 0.5625 -8.75 C 0.5625 -8.863281 0.617188 -8.921875 0.734375 -8.921875 Z M 0.734375 -8.921875 "/></g></g></g><g fill="#d3f51c" fill-opacity="1"><g transform="translate(156.259669, 240.566922)"><g><path d="M 0.515625 -8.921875 L 4.625 -8.921875 C 4.738281 -8.921875 4.796875 -8.863281 4.796875 -8.75 L 4.796875 -7.625 C 4.796875 -7.507812 4.738281 -7.453125 4.625 -7.453125 L 3.328125 -7.453125 L 3.328125 -0.171875 C 3.328125 -0.0546875 3.265625 0 3.140625 0 L 1.984375 0 C 1.867188 0 1.8125 -0.0546875 1.8125 -0.171875 L 1.8125 -7.453125 L 0.515625 -7.453125 C 0.390625 -7.453125 0.328125 -7.507812 0.328125 -7.625 L 0.328125 -8.75 C 0.328125 -8.863281 0.390625 -8.921875 0.515625 -8.921875 Z M 0.515625 -8.921875 "/></g></g></g><g fill="#d3f51c" fill-opacity="1"><g transform="translate(161.39152, 240.566922)"><g><path d="M 3.984375 -8.921875 L 5.140625 -8.921875 C 5.265625 -8.921875 5.328125 -8.863281 5.328125 -8.75 L 5.328125 -0.171875 C 5.328125 -0.0546875 5.265625 0 5.140625 0 L 4.03125 0 C 3.925781 0 3.863281 -0.046875 3.84375 -0.140625 L 2.125 -4.90625 L 2.078125 -4.90625 L 2.078125 -0.171875 C 2.078125 -0.0546875 2.015625 0 1.890625 0 L 0.734375 0 C 0.617188 0 0.5625 -0.0546875 0.5625 -0.171875 L 0.5625 -8.75 C 0.5625 -8.863281 0.617188 -8.921875 0.734375 -8.921875 L 1.84375 -8.921875 C 1.945312 -8.921875 2.015625 -8.875 2.046875 -8.78125 L 3.734375 -4.03125 L 3.796875 -4.03125 L 3.796875 -8.75 C 3.796875 -8.863281 3.859375 -8.921875 3.984375 -8.921875 Z M 3.984375 -8.921875 "/></g></g></g><g fill="#d3f51c" fill-opacity="1"><g transform="translate(167.270842, 240.566922)"><g><path d="M 5.015625 -8.75 L 5.015625 -7.625 C 5.015625 -7.5 4.953125 -7.4375 4.828125 -7.4375 L 2.046875 -7.4375 L 2.046875 -5.203125 L 4.171875 -5.203125 C 4.285156 -5.203125 4.34375 -5.140625 4.34375 -5.015625 L 4.34375 -3.921875 C 4.34375 -3.785156 4.285156 -3.71875 4.171875 -3.71875 L 2.046875 -3.71875 L 2.046875 -1.46875 L 4.828125 -1.46875 C 4.953125 -1.46875 5.015625 -1.410156 5.015625 -1.296875 L 5.015625 -0.171875 C 5.015625 -0.0546875 4.953125 0 4.828125 0 L 0.71875 0 C 0.613281 0 0.5625 -0.0546875 0.5625 -0.171875 L 0.5625 -8.75 C 0.5625 -8.863281 0.613281 -8.921875 0.71875 -8.921875 L 4.828125 -8.921875 C 4.953125 -8.921875 5.015625 -8.863281 5.015625 -8.75 Z M 5.015625 -8.75 "/></g></g></g><g fill="#d3f51c" fill-opacity="1"><g transform="translate(172.837785, 240.566922)"><g><path d="M 2.171875 -8.921875 L 3.40625 -8.921875 C 3.9375 -8.921875 4.335938 -8.785156 4.609375 -8.515625 C 4.878906 -8.242188 5.015625 -7.84375 5.015625 -7.3125 L 5.015625 -6.140625 C 5.015625 -6.015625 4.957031 -5.953125 4.84375 -5.953125 L 3.6875 -5.953125 C 3.5625 -5.953125 3.5 -6.015625 3.5 -6.140625 L 3.5 -7 C 3.5 -7.300781 3.351562 -7.453125 3.0625 -7.453125 L 2.515625 -7.453125 C 2.222656 -7.453125 2.078125 -7.300781 2.078125 -7 L 2.078125 -5.46875 L 4.734375 -4.59375 C 4.921875 -4.507812 5.015625 -4.375 5.015625 -4.1875 L 5.015625 -1.609375 C 5.015625 -1.085938 4.878906 -0.6875 4.609375 -0.40625 C 4.335938 -0.132812 3.9375 0 3.40625 0 L 2.171875 0 C 1.648438 0 1.25 -0.132812 0.96875 -0.40625 C 0.695312 -0.6875 0.5625 -1.085938 0.5625 -1.609375 L 0.5625 -2.78125 C 0.5625 -2.894531 0.617188 -2.953125 0.734375 -2.953125 L 1.890625 -2.953125 C 2.015625 -2.953125 2.078125 -2.894531 2.078125 -2.78125 L 2.078125 -1.921875 C 2.078125 -1.617188 2.222656 -1.46875 2.515625 -1.46875 L 3.0625 -1.46875 C 3.351562 -1.46875 3.5 -1.617188 3.5 -1.921875 L 3.5 -3.40625 L 0.859375 -4.265625 C 0.660156 -4.335938 0.5625 -4.476562 0.5625 -4.6875 L 0.5625 -7.3125 C 0.5625 -7.84375 0.695312 -8.242188 0.96875 -8.515625 C 1.25 -8.785156 1.648438 -8.921875 2.171875 -8.921875 Z M 2.171875 -8.921875 "/></g></g></g><g fill="#d3f51c" fill-opacity="1"><g transform="translate(178.415887, 240.566922)"><g><path d="M 2.171875 -8.921875 L 3.40625 -8.921875 C 3.9375 -8.921875 4.335938 -8.785156 4.609375 -8.515625 C 4.878906 -8.242188 5.015625 -7.84375 5.015625 -7.3125 L 5.015625 -6.140625 C 5.015625 -6.015625 4.957031 -5.953125 4.84375 -5.953125 L 3.6875 -5.953125 C 3.5625 -5.953125 3.5 -6.015625 3.5 -6.140625 L 3.5 -7 C 3.5 -7.300781 3.351562 -7.453125 3.0625 -7.453125 L 2.515625 -7.453125 C 2.222656 -7.453125 2.078125 -7.300781 2.078125 -7 L 2.078125 -5.46875 L 4.734375 -4.59375 C 4.921875 -4.507812 5.015625 -4.375 5.015625 -4.1875 L 5.015625 -1.609375 C 5.015625 -1.085938 4.878906 -0.6875 4.609375 -0.40625 C 4.335938 -0.132812 3.9375 0 3.40625 0 L 2.171875 0 C 1.648438 0 1.25 -0.132812 0.96875 -0.40625 C 0.695312 -0.6875 0.5625 -1.085938 0.5625 -1.609375 L 0.5625 -2.78125 C 0.5625 -2.894531 0.617188 -2.953125 0.734375 -2.953125 L 1.890625 -2.953125 C 2.015625 -2.953125 2.078125 -2.894531 2.078125 -2.78125 L 2.078125 -1.921875 C 2.078125 -1.617188 2.222656 -1.46875 2.515625 -1.46875 L 3.0625 -1.46875 C 3.351562 -1.46875 3.5 -1.617188 3.5 -1.921875 L 3.5 -3.40625 L 0.859375 -4.265625 C 0.660156 -4.335938 0.5625 -4.476562 0.5625 -4.6875 L 0.5625 -7.3125 C 0.5625 -7.84375 0.695312 -8.242188 0.96875 -8.515625 C 1.25 -8.785156 1.648438 -8.921875 2.171875 -8.921875 Z M 2.171875 -8.921875 "/></g></g></g><g fill="#d3f51c" fill-opacity="1"><g transform="translate(183.993989, 240.566922)"><g/></g></g><g fill="#d3f51c" fill-opacity="1"><g transform="translate(186.78304, 240.566922)"><g><path d="M 5.9375 0 L 4.75 0 C 4.65625 0 4.597656 -0.0507812 4.578125 -0.15625 L 4.265625 -1.78125 L 2.28125 -1.78125 L 1.96875 -0.15625 C 1.945312 -0.0507812 1.890625 0 1.796875 0 L 0.609375 0 C 0.472656 0 0.421875 -0.0625 0.453125 -0.1875 L 2.3125 -8.765625 C 2.332031 -8.867188 2.394531 -8.921875 2.5 -8.921875 L 4.046875 -8.921875 C 4.148438 -8.921875 4.210938 -8.867188 4.234375 -8.765625 L 6.09375 -0.1875 C 6.113281 -0.0625 6.0625 0 5.9375 0 Z M 3.984375 -3.078125 L 3.265625 -6.96875 L 2.5625 -3.078125 Z M 3.984375 -3.078125 "/></g></g></g><g fill="#d3f51c" fill-opacity="1"><g transform="translate(193.320568, 240.566922)"><g><path d="M 3.984375 -8.921875 L 5.140625 -8.921875 C 5.265625 -8.921875 5.328125 -8.863281 5.328125 -8.75 L 5.328125 -0.171875 C 5.328125 -0.0546875 5.265625 0 5.140625 0 L 4.03125 0 C 3.925781 0 3.863281 -0.046875 3.84375 -0.140625 L 2.125 -4.90625 L 2.078125 -4.90625 L 2.078125 -0.171875 C 2.078125 -0.0546875 2.015625 0 1.890625 0 L 0.734375 0 C 0.617188 0 0.5625 -0.0546875 0.5625 -0.171875 L 0.5625 -8.75 C 0.5625 -8.863281 0.617188 -8.921875 0.734375 -8.921875 L 1.84375 -8.921875 C 1.945312 -8.921875 2.015625 -8.875 2.046875 -8.78125 L 3.734375 -4.03125 L 3.796875 -4.03125 L 3.796875 -8.75 C 3.796875 -8.863281 3.859375 -8.921875 3.984375 -8.921875 Z M 3.984375 -8.921875 "/></g></g></g><g fill="#d3f51c" fill-opacity="1"><g transform="translate(199.19989, 240.566922)"><g><path d="M 0.5625 -0.171875 L 0.5625 -8.75 C 0.5625 -8.863281 0.617188 -8.921875 0.734375 -8.921875 L 3.40625 -8.921875 C 3.9375 -8.921875 4.335938 -8.78125 4.609375 -8.5 C 4.878906 -8.226562 5.015625 -7.832031 5.015625 -7.3125 L 5.015625 -1.609375 C 5.015625 -1.085938 4.878906 -0.6875 4.609375 -0.40625 C 4.335938 -0.132812 3.9375 0 3.40625 0 L 0.734375 0 C 0.617188 0 0.5625 -0.0546875 0.5625 -0.171875 Z M 2.078125 -1.46875 L 3.09375 -1.46875 C 3.394531 -1.46875 3.546875 -1.617188 3.546875 -1.921875 L 3.546875 -7 C 3.546875 -7.300781 3.394531 -7.453125 3.09375 -7.453125 L 2.078125 -7.453125 Z M 2.078125 -1.46875 "/></g></g></g><g fill="#d3f51c" fill-opacity="1"><g transform="translate(204.777992, 240.566922)"><g/></g></g><g fill="#d3f51c" fill-opacity="1"><g transform="translate(207.567043, 240.566922)"><g><path d="M 0.5625 -1.609375 L 0.5625 -7.3125 C 0.5625 -7.84375 0.695312 -8.242188 0.96875 -8.515625 C 1.25 -8.785156 1.648438 -8.921875 2.171875 -8.921875 L 3.640625 -8.921875 C 4.160156 -8.921875 4.554688 -8.785156 4.828125 -8.515625 C 5.109375 -8.242188 5.25 -7.84375 5.25 -7.3125 L 5.25 -6.15625 C 5.25 -6.039062 5.1875 -5.984375 5.0625 -5.984375 L 3.953125 -5.984375 C 3.828125 -5.984375 3.765625 -6.039062 3.765625 -6.15625 L 3.765625 -7 C 3.765625 -7.300781 3.617188 -7.453125 3.328125 -7.453125 L 2.515625 -7.453125 C 2.222656 -7.453125 2.078125 -7.300781 2.078125 -7 L 2.078125 -1.921875 C 2.078125 -1.617188 2.222656 -1.46875 2.515625 -1.46875 L 3.328125 -1.46875 C 3.617188 -1.46875 3.765625 -1.617188 3.765625 -1.921875 L 3.765625 -3.40625 L 3.1875 -3.40625 C 3.070312 -3.40625 3.015625 -3.46875 3.015625 -3.59375 L 3.015625 -4.703125 C 3.015625 -4.828125 3.070312 -4.890625 3.1875 -4.890625 L 5.0625 -4.890625 C 5.1875 -4.890625 5.25 -4.828125 5.25 -4.703125 L 5.25 -1.609375 C 5.25 -1.085938 5.109375 -0.6875 4.828125 -0.40625 C 4.554688 -0.132812 4.160156 0 3.640625 0 L 2.171875 0 C 1.648438 0 1.25 -0.132812 0.96875 -0.40625 C 0.695312 -0.6875 0.5625 -1.085938 0.5625 -1.609375 Z M 0.5625 -1.609375 "/></g></g></g><g fill="#d3f51c" fill-opacity="1"><g transform="translate(213.36827, 240.566922)"><g><path d="M 4.546875 -8.921875 L 5.671875 -8.921875 C 5.753906 -8.921875 5.8125 -8.898438 5.84375 -8.859375 C 5.882812 -8.816406 5.882812 -8.753906 5.84375 -8.671875 L 3.796875 -3.703125 L 3.796875 -0.21875 C 3.796875 -0.0703125 3.722656 0 3.578125 0 L 2.515625 0 C 2.359375 0 2.28125 -0.0703125 2.28125 -0.21875 L 2.28125 -3.703125 L 0.25 -8.671875 C 0.21875 -8.753906 0.21875 -8.816406 0.25 -8.859375 C 0.28125 -8.898438 0.335938 -8.921875 0.421875 -8.921875 L 1.546875 -8.921875 C 1.671875 -8.921875 1.753906 -8.863281 1.796875 -8.75 L 3.046875 -5.546875 L 4.296875 -8.75 C 4.335938 -8.863281 4.421875 -8.921875 4.546875 -8.921875 Z M 4.546875 -8.921875 "/></g></g></g><g fill="#d3f51c" fill-opacity="1"><g transform="translate(219.459559, 240.566922)"><g><path d="M 5.21875 -8.921875 L 6.6875 -8.921875 C 6.84375 -8.921875 6.921875 -8.847656 6.921875 -8.703125 L 6.921875 -0.21875 C 6.921875 -0.0703125 6.84375 0 6.6875 0 L 5.65625 0 C 5.507812 0 5.4375 -0.0703125 5.4375 -0.21875 L 5.4375 -5.25 L 5.359375 -5.25 L 4.25 -0.203125 C 4.21875 -0.0664062 4.132812 0 4 0 L 3.453125 0 C 3.328125 0 3.25 -0.0664062 3.21875 -0.203125 L 2.109375 -5.25 L 2.03125 -5.25 L 2.03125 -0.21875 C 2.03125 -0.0703125 1.957031 0 1.8125 0 L 0.78125 0 C 0.632812 0 0.5625 -0.0703125 0.5625 -0.21875 L 0.5625 -8.703125 C 0.5625 -8.847656 0.632812 -8.921875 0.78125 -8.921875 L 2.25 -8.921875 C 2.382812 -8.921875 2.46875 -8.851562 2.5 -8.71875 L 3.734375 -3.171875 L 4.96875 -8.71875 C 5.007812 -8.851562 5.09375 -8.921875 5.21875 -8.921875 Z M 5.21875 -8.921875 "/></g></g></g></svg>